<?xml version="1.0" encoding="UTF-8" standalone="no"?>
<svg
   xmlns:dc="http://purl.org/dc/elements/1.1/"
   xmlns:cc="http://creativecommons.org/ns#"
   xmlns:rdf="http://www.w3.org/1999/02/22-rdf-syntax-ns#"
   xmlns:svg="http://www.w3.org/2000/svg"
   xmlns="http://www.w3.org/2000/svg"
   xmlns:sodipodi="http://sodipodi.sourceforge.net/DTD/sodipodi-0.dtd"
   xmlns:inkscape="http://www.inkscape.org/namespaces/inkscape"
   version="1.0"
   width="128.000000pt"
   height="128.000000pt"
   viewBox="0 0 128.000000 128.000000"
   preserveAspectRatio="xMidYMid meet"
   id="svg2"
   inkscape:version="0.91 r13725"
   sodipodi:docname="icon-128x128.svg">
  <defs
     id="defs12" />
  <sodipodi:namedview
     pagecolor="#ffffff"
     bordercolor="#666666"
     borderopacity="1"
     objecttolerance="10"
     gridtolerance="10"
     guidetolerance="10"
     inkscape:pageopacity="0"
     inkscape:pageshadow="2"
     inkscape:window-width="1197"
     inkscape:window-height="633"
     id="namedview10"
     showgrid="false"
     inkscape:zoom="1.475"
     inkscape:cx="-4.4067797"
     inkscape:cy="80"
     inkscape:window-x="1434"
     inkscape:window-y="465"
     inkscape:window-maximized="0"
     inkscape:current-layer="svg2" />
  <metadata
     id="metadata4">
Created by potrace 1.13, written by Peter Selinger 2001-2015
<rdf:RDF>
  <cc:Work
     rdf:about="">
    <dc:format>image/svg+xml</dc:format>
    <dc:type
       rdf:resource="http://purl.org/dc/dcmitype/StillImage" />
  </cc:Work>
</rdf:RDF>
</metadata>
  <g
     transform="translate(0.000000,128.000000) scale(0.100000,-0.100000)"
     fill="#000000"
     stroke="none"
     id="g6"
     style="fill:#1f497d;fill-opacity:1">
    <path
       d="M600 1229 c-134 -27 -274 -141 -347 -284 -157 -306 -123 -619 76 -702 40 -17 146 -22 202 -10 l36 7 45 -77 c27 -47 57 -84 73 -93 22 -12 72 -15 244 -15 192 0 220 2 244 18 33 21 51 62 42 95 -10 42 -57 52 -250 52 -193 0 -194 0 -230 70 l-16 31 46 51 c175 195 252 524 164 705 -58 120 -190 181 -329 152z m116 -178 c99 -60 79 -320 -40 -505 -20 -31 -40 -56 -44 -56 -5 0 -21 22 -35 49 -32 58 -44 69 -84 77 -23 4 -36 0 -59 -19 -38 -33 -38 -87 0 -151 l27 -46 -30 0 c-38 0 -86 41 -102 87 -19 59 -6 185 30 293 47 142 132 255 211 283 34 12 97 6 126 -12z"
       id="path8"
       style="fill:#1f497d;fill-opacity:1" />
  </g>
</svg>
