<svg version="1.1" xmlns="http://www.w3.org/2000/svg" xmlns:xlink="http://www.w3.org/1999/xlink" x="0px" y="0px" viewBox="0 0 1000 1000" enable-background="new 0 0 1000 1000" xml:space="preserve">
<g><g transform="translate(0.000000,512.000000) scale(0.100000,-0.100000)"><path fill="gray" d="M4565.4,5005.1c-899-80.5-1784.6-423.6-2532.1-981.4c-237.7-176.4-759.1-697.7-935.4-935.4c-364.2-486.9-644.1-1042.8-801.2-1592.9C-136.6-9.4,152.9-1586.9,1097.9-2850.1c176.4-237.7,697.7-759.1,935.4-935.4c630.6-471.5,1322.6-776.3,2077.9-916.3c1359-251.1,2735.3,76.7,3862.4,916.3c233.9,176.4,757.2,699.6,933.5,933.5c517.5,693.9,822.3,1431.9,958.4,2319.4c46,306.7,46,996.8,0,1303.4c-136.1,885.6-442.8,1627.4-958.4,2317.5c-176.3,237.7-697.7,759.1-935.4,935.4C6978.7,4765.5,5775,5112.4,4565.4,5005.1z M7456,3615.4c488.8-323.9,925.8-770.6,1240.2-1270.9c55.6-88.2,95.8-168.7,88.2-176.3c-9.6-7.7-454.3-356.5-992.9-772.5l-975.7-759.1l-92,193.6c-111.2,233.8-220.4,391-381.4,546.3c-159.1,151.4-268.4,222.4-496.5,331.6l-189.8,88.2l770.6,991c701.6,902.8,772.5,987.2,808.9,969.9C7256.7,3745.7,7356.3,3682.5,7456,3615.4z M5297.7,1307.5c544.4-138,931.6-632.6,931.6-1188.4c0-669-557.8-1226.8-1226.8-1226.8S3775.7-549.9,3775.7,119.1C3775.7,908.8,4536.7,1503,5297.7,1307.5z M3354-578.7c0-44.1,155.3-345,239.6-462c93.9-132.3,285.6-320.1,417.9-410.2c51.8-34.5,180.2-103.5,283.7-153.3l189.8-90.1L3725.8-2670c-416-538.6-764.8-983.3-772.5-992.9c-17.3-17.3-283.7,147.6-502.2,312.4c-218.5,164.8-632.6,582.7-797.4,805.1c-132.3,180.2-283.7,412.1-297.1,452.4c-7.7,24.9,1960.9,1562.2,1982,1548.8C3346.3-549.9,3354-565.3,3354-578.7z"/><path fill="gray" d="M4858.7,715.2c-176.4-46-331.6-176.3-410.2-345c-40.3-86.3-49.8-136.1-49.8-253c0-128.4,7.7-161,67.1-277.9c230-450.5,868.3-437,1092.6,21.1c67.1,138,67.1,379.5,0,517.5c-59.4,122.7-176.3,237.7-295.2,293.3C5161.6,719,4956.5,742,4858.7,715.2z"/></g></g>
</svg>
